<svg xmlns="http://www.w3.org/2000/svg" xmlns:xlink="http://www.w3.org/1999/xlink" version="1.1" id="Layer_1" x="0" y="0" width="453.5" height="255.1" viewBox="0 0 453.5 255.1" enable-background="new 0 0 453.54 255.12" xml:space="preserve"><defs><rect id="SVGID_1_" width="453.5" height="255.1"/></defs><clipPath id="SVGID_2_"><use xlink:href="#SVGID_1_" overflow="visible"/></clipPath><rect clip-path="url(#SVGID_2_)" fill="#1D1D37" width="453.5" height="255.1"/><g clip-path="url(#SVGID_2_)"><defs><rect id="SVGID_3_" width="453.5" height="255.1"/></defs><clipPath id="SVGID_4_"><use xlink:href="#SVGID_3_" overflow="visible"/></clipPath><path clip-path="url(#SVGID_4_)" fill="#F8AC3B" d="M389 198.2c0 2.6 2.1 4.7 4.7 4.7 2.6 0 4.7-2.1 4.7-4.7 0-2.6-2.1-4.7-4.7-4.7C391.1 193.5 389 195.6 389 198.2"/><path clip-path="url(#SVGID_4_)" fill="#D1D187" d="M369 212.4c0 4.4 3.6 8 8 8 4.4 0 8-3.6 8-8s-3.6-8-8-8C372.6 204.4 369 208 369 212.4"/><path clip-path="url(#SVGID_4_)" fill="#4553A0" d="M32 22.3C32 24.9 34.1 27 36.7 27c2.6 0 4.7-2.1 4.7-4.7s-2.1-4.7-4.7-4.7C34.1 17.7 32 19.8 32 22.3"/><path clip-path="url(#SVGID_4_)" fill="#7A4997" d="M175.5 147.1c0 2.6 2.1 4.7 4.7 4.7 2.6 0 4.7-2.1 4.7-4.7s-2.1-4.7-4.7-4.7C177.6 142.4 175.5 144.5 175.5 147.1"/><path clip-path="url(#SVGID_4_)" fill="#D1D187" d="M87.3 94.3c0 4.4 3.6 8 8 8s8-3.6 8-8 -3.6-8-8-8S87.3 89.9 87.3 94.3"/><path clip-path="url(#SVGID_4_)" fill="#F8AC3B" d="M24.4 153.5c1.8 7.5 9.3 12.2 16.9 10.4 7.5-1.8 12.2-9.3 10.4-16.9 -1.8-7.5-9.3-12.2-16.9-10.4C27.2 138.4 22.6 146 24.4 153.5"/><path clip-path="url(#SVGID_4_)" fill="#EB5F50" d="M142.5 225.7c0 4.4 3.6 8 8 8s8-3.6 8-8 -3.6-8-8-8S142.5 221.2 142.5 225.7"/><path clip-path="url(#SVGID_4_)" fill="#E3263D" d="M35.9 141.3c-12.5 3-21.8 8.9-20.8 13.2 1 4.3 12 5.4 24.5 2.4s21.8-8.9 20.8-13.2C59.4 139.4 48.4 138.3 35.9 141.3M38.7 153.4c-8.8 2.1-16.4 1.3-17.2-1.7 -0.7-3 5.8-7.1 14.6-9.2 8.8-2.1 16.4-1.3 17.2 1.7C54 147.2 47.5 151.3 38.7 153.4"/><path clip-path="url(#SVGID_4_)" fill="#F8AC3B" d="M51.6 147c-1.8-7.5-9.3-12.2-16.9-10.4 -7.5 1.8-12.2 9.3-10.4 16.9"/><polygon clip-path="url(#SVGID_4_)" fill="#FBC242" points="14.7 105.2 15.2 106.9 17 106.9 15.6 108 16.1 109.7 14.7 108.6 13.2 109.7 13.8 108 12.3 106.9 14.1 106.9 "/><polygon clip-path="url(#SVGID_4_)" fill="#FBC242" points="144.7 169.4 145.2 171.1 147 171.1 145.6 172.2 146.1 173.9 144.7 172.8 143.2 173.9 143.8 172.2 142.4 171.1 144.1 171.1 "/><polygon clip-path="url(#SVGID_4_)" fill="#FBC242" points="10 191.3 10.6 193 12.3 193 10.9 194 11.4 195.7 10 194.7 8.6 195.7 9.1 194 7.7 193 9.4 193 "/><polygon clip-path="url(#SVGID_4_)" fill="#FBC242" points="140.3 117.7 140.9 119.4 142.7 119.4 141.2 120.4 141.8 122.1 140.3 121.1 138.9 122.1 139.4 120.4 138 119.4 139.8 119.4 "/><polygon clip-path="url(#SVGID_4_)" fill="#FBC242" points="253.3 56.6 253.9 58.3 255.7 58.3 254.2 59.4 254.8 61 253.3 60 251.9 61 252.4 59.4 251 58.3 252.8 58.3 "/><polygon clip-path="url(#SVGID_4_)" fill="#FBC242" points="70.5 55.2 71 56.9 72.8 56.9 71.3 57.9 71.9 59.6 70.5 58.6 69 59.6 69.6 57.9 68.1 56.9 69.9 56.9 "/><polygon clip-path="url(#SVGID_4_)" fill="#FBC242" points="93 238.3 93.6 240 95.3 240 93.9 241 94.4 242.7 93 241.7 91.6 242.7 92.1 241 90.7 240 92.4 240 "/><polygon clip-path="url(#SVGID_4_)" fill="#FBC242" points="261.9 224.7 262.5 226.4 264.3 226.4 262.8 227.4 263.4 229.1 261.9 228.1 260.5 229.1 261 227.4 259.6 226.4 261.4 226.4 "/><polygon clip-path="url(#SVGID_4_)" fill="#FBC242" points="361.8 21.6 362.3 23.3 364.1 23.3 362.7 24.3 363.2 26 361.8 25 360.4 26 360.9 24.3 359.5 23.3 361.2 23.3 "/><polygon clip-path="url(#SVGID_4_)" fill="#FBC242" points="411.9 161 412.4 162.7 414.2 162.7 412.8 163.8 413.3 165.5 411.9 164.4 410.4 165.5 411 163.8 409.6 162.7 411.3 162.7 "/><polygon clip-path="url(#SVGID_4_)" fill="#FBC242" points="311 172.3 311.5 174 313.3 174 311.9 175.1 312.4 176.8 311 175.7 309.5 176.8 310.1 175.1 308.6 174 310.4 174 "/><polygon clip-path="url(#SVGID_4_)" fill="#FBC242" points="441.8 244.1 442.3 245.7 444.1 245.7 442.7 246.8 443.2 248.5 441.8 247.4 440.4 248.5 440.9 246.8 439.5 245.7 441.2 245.7 "/><path clip-path="url(#SVGID_4_)" fill="#9AA090" d="M84.7 87.7c0 0.7 0.6 1.3 1.3 1.3 0.7 0 1.3-0.6 1.3-1.3 0-0.7-0.6-1.3-1.3-1.3C85.3 86.3 84.7 86.9 84.7 87.7"/><path clip-path="url(#SVGID_4_)" fill="#F8AC3B" d="M281.7 24.2c0 0.7 0.6 1.3 1.3 1.3s1.3-0.6 1.3-1.3c0-0.7-0.6-1.3-1.3-1.3S281.7 23.4 281.7 24.2"/><path clip-path="url(#SVGID_4_)" fill="#9AA090" d="M103.3 100c0 0.7 0.6 1.3 1.3 1.3 0.7 0 1.3-0.6 1.3-1.3 0-0.7-0.6-1.3-1.3-1.3C103.9 98.7 103.3 99.3 103.3 100"/><path clip-path="url(#SVGID_4_)" fill="#9AA090" d="M104.7 94.3c0 0.7 0.6 1.3 1.3 1.3 0.7 0 1.3-0.6 1.3-1.3 0-0.7-0.6-1.3-1.3-1.3C105.3 93 104.7 93.6 104.7 94.3"/><path clip-path="url(#SVGID_4_)" fill="#F8AC3B" d="M301.3 28.9c0 0.7 0.6 1.3 1.3 1.3 0.7 0 1.3-0.6 1.3-1.3 0-0.7-0.6-1.3-1.3-1.3C301.9 27.5 301.3 28.1 301.3 28.9"/><g opacity="0.2" clip-path="url(#SVGID_4_)"><defs><rect id="SVGID_5_" x="27.7" y="142.8" width="6.2" height="6.2"/></defs><clipPath id="SVGID_6_"><use xlink:href="#SVGID_5_" overflow="visible"/></clipPath><path clip-path="url(#SVGID_6_)" fill="#FFFFFF" d="M27.8 146.7c0.4 1.7 2.1 2.7 3.8 2.3 1.7-0.4 2.7-2.1 2.3-3.7 -0.4-1.7-2.1-2.7-3.7-2.3C28.4 143.3 27.4 145 27.8 146.7"/></g><g opacity="0.2" clip-path="url(#SVGID_4_)"><defs><rect id="SVGID_7_" x="90" y="89" width="4.3" height="4.3"/></defs><clipPath id="SVGID_8_"><use xlink:href="#SVGID_7_" overflow="visible"/></clipPath><path clip-path="url(#SVGID_8_)" fill="#FFFFFF" d="M90 91.2c0 1.2 1 2.2 2.2 2.2 1.2 0 2.2-1 2.2-2.2 0-1.2-1-2.2-2.2-2.2C91 89 90 90 90 91.2"/></g><path clip-path="url(#SVGID_4_)" fill="#4553A0" d="M228 179.7c0 7 5.7 12.7 12.7 12.7 7 0 12.7-5.7 12.7-12.7s-5.7-12.7-12.7-12.7C233.7 167 228 172.7 228 179.7"/><path clip-path="url(#SVGID_4_)" fill="#23388D" d="M223.8 169.1c0 1.2 0.9 2.1 2.1 2.1 1.2 0 2.1-0.9 2.1-2.1s-0.9-2.1-2.1-2.1C224.7 167 223.8 167.9 223.8 169.1"/><path clip-path="url(#SVGID_4_)" fill="#23388D" d="M244.6 190.7c0 1.2 0.9 2.1 2.1 2.1 1.2 0 2.1-0.9 2.1-2.1s-0.9-2.1-2.1-2.1C245.6 188.6 244.6 189.6 244.6 190.7"/><path clip-path="url(#SVGID_4_)" fill="#4553A0" d="M181.9 149.1c0 1.2 0.9 2.1 2.1 2.1 1.2 0 2.1-0.9 2.1-2.1 0-1.2-0.9-2.1-2.1-2.1C182.9 146.9 181.9 147.9 181.9 149.1"/><path clip-path="url(#SVGID_4_)" fill="#F8AC3B" d="M379 141.3c0 2.6 2.1 4.7 4.7 4.7 2.6 0 4.7-2.1 4.7-4.7s-2.1-4.7-4.7-4.7C381.1 136.6 379 138.7 379 141.3"/><path clip-path="url(#SVGID_4_)" fill="#D1D187" d="M377.1 138.4c0 1.2 0.9 2.1 2.1 2.1s2.1-0.9 2.1-2.1 -0.9-2.1-2.1-2.1S377.1 137.2 377.1 138.4"/><g opacity="0.2" clip-path="url(#SVGID_4_)"><defs><rect id="SVGID_9_" x="232.2" y="171.2" width="6.9" height="6.9"/></defs><clipPath id="SVGID_10_"><use xlink:href="#SVGID_9_" overflow="visible"/></clipPath><path clip-path="url(#SVGID_10_)" fill="#FFFFFF" d="M232.2 174.7c0 1.9 1.5 3.4 3.4 3.4 1.9 0 3.4-1.5 3.4-3.4 0-1.9-1.5-3.4-3.4-3.4C233.8 171.2 232.2 172.8 232.2 174.7"/></g><g opacity="0.2" clip-path="url(#SVGID_4_)"><defs><rect id="SVGID_11_" x="145" y="221.3" width="4.3" height="4.3"/></defs><clipPath id="SVGID_12_"><use xlink:href="#SVGID_11_" overflow="visible"/></clipPath><path clip-path="url(#SVGID_12_)" fill="#FFFFFF" d="M145 223.5c0 1.2 1 2.2 2.2 2.2 1.2 0 2.2-1 2.2-2.2s-1-2.2-2.2-2.2C146 221.3 145 222.3 145 223.5"/></g><path clip-path="url(#SVGID_4_)" fill="#EB5F50" d="M287.5 25.2c0 4.4 3.6 8 8 8 4.4 0 8-3.6 8-8s-3.6-8-8-8C291.1 17.2 287.5 20.8 287.5 25.2"/><g opacity="0.2" clip-path="url(#SVGID_4_)"><defs><rect id="SVGID_13_" x="290" y="20.8" width="4.3" height="4.3"/></defs><clipPath id="SVGID_14_"><use xlink:href="#SVGID_13_" overflow="visible"/></clipPath><path clip-path="url(#SVGID_14_)" fill="#FFFFFF" d="M290 23c0 1.2 1 2.2 2.2 2.2 1.2 0 2.2-1 2.2-2.2s-1-2.2-2.2-2.2C291 20.8 290 21.8 290 23"/></g><g opacity="0.2" clip-path="url(#SVGID_4_)"><defs><rect id="SVGID_15_" x="372.7" y="207.3" width="4.3" height="4.3"/></defs><clipPath id="SVGID_16_"><use xlink:href="#SVGID_15_" overflow="visible"/></clipPath><path clip-path="url(#SVGID_16_)" fill="#FFFFFF" d="M372.7 209.5c0 1.2 1 2.2 2.2 2.2 1.2 0 2.2-1 2.2-2.2s-1-2.2-2.2-2.2C373.6 207.3 372.7 208.3 372.7 209.5"/></g><g opacity="0.2" clip-path="url(#SVGID_4_)"><defs><rect id="SVGID_17_" x="390.7" y="195.8" width="2" height="2"/></defs><clipPath id="SVGID_18_"><use xlink:href="#SVGID_17_" overflow="visible"/></clipPath><path clip-path="url(#SVGID_18_)" fill="#FFFFFF" d="M390.7 196.8c0 0.6 0.5 1 1 1 0.6 0 1-0.5 1-1s-0.4-1-1-1C391.1 195.8 390.7 196.3 390.7 196.8"/></g><path clip-path="url(#SVGID_4_)" fill="#F8AC3B" d="M142.1 50.3c0 5.4 4.4 9.8 9.8 9.8 5.4 0 9.8-4.4 9.8-9.8 0-5.4-4.4-9.8-9.8-9.8C146.5 40.4 142.1 44.8 142.1 50.3"/><g opacity="0.2" clip-path="url(#SVGID_4_)"><defs><rect id="SVGID_19_" x="145.5" y="45.3" width="4.2" height="4.2"/></defs><clipPath id="SVGID_20_"><use xlink:href="#SVGID_19_" overflow="visible"/></clipPath><path clip-path="url(#SVGID_20_)" fill="#FFFFFF" d="M145.5 47.4c0 1.2 0.9 2.1 2.1 2.1s2.1-0.9 2.1-2.1 -0.9-2.1-2.1-2.1S145.5 46.3 145.5 47.4"/></g><path clip-path="url(#SVGID_4_)" fill="#FFFFFF" d="M47.3 68.2c0 0.4 0.3 0.7 0.7 0.7s0.7-0.3 0.7-0.7c0-0.4-0.3-0.7-0.7-0.7S47.3 67.8 47.3 68.2"/><path clip-path="url(#SVGID_4_)" fill="#FFFFFF" d="M110 147.8c0 0.4 0.3 0.7 0.7 0.7s0.7-0.3 0.7-0.7 -0.3-0.7-0.7-0.7S110 147.4 110 147.8"/><path clip-path="url(#SVGID_4_)" fill="#FFFFFF" d="M99.5 53c0 0.4 0.3 0.7 0.7 0.7s0.7-0.3 0.7-0.7 -0.3-0.7-0.7-0.7S99.5 52.6 99.5 53"/><path clip-path="url(#SVGID_4_)" fill="#FFFFFF" d="M39.3 15.3c0 0.4 0.3 0.7 0.7 0.7s0.7-0.3 0.7-0.7 -0.3-0.7-0.7-0.7S39.3 15 39.3 15.3"/><path clip-path="url(#SVGID_4_)" fill="#FFFFFF" d="M46.7 21.6c0 0.4 0.3 0.7 0.7 0.7 0.4 0 0.7-0.3 0.7-0.7 0-0.4-0.3-0.7-0.7-0.7C47 20.9 46.7 21.2 46.7 21.6"/><path clip-path="url(#SVGID_4_)" fill="#FFFFFF" d="M350.4 148.4c0 0.4 0.3 0.7 0.7 0.7s0.7-0.3 0.7-0.7 -0.3-0.7-0.7-0.7S350.4 148.1 350.4 148.4"/><path clip-path="url(#SVGID_4_)" fill="#FFFFFF" d="M441.1 198.2c0 0.4 0.3 0.7 0.7 0.7s0.7-0.3 0.7-0.7 -0.3-0.7-0.7-0.7S441.1 197.8 441.1 198.2"/><path clip-path="url(#SVGID_4_)" fill="#FFFFFF" d="M198.2 209.5c0 0.4 0.3 0.7 0.7 0.7 0.4 0 0.7-0.3 0.7-0.7s-0.3-0.7-0.7-0.7C198.5 208.8 198.2 209.1 198.2 209.5"/><path clip-path="url(#SVGID_4_)" fill="#FFFFFF" d="M332.8 80.3c0 0.4 0.3 0.7 0.7 0.7s0.7-0.3 0.7-0.7 -0.3-0.7-0.7-0.7S332.8 79.9 332.8 80.3"/><path clip-path="url(#SVGID_4_)" fill="#FFFFFF" d="M223.1 42.7c0 0.4 0.3 0.7 0.7 0.7s0.7-0.3 0.7-0.7 -0.3-0.7-0.7-0.7S223.1 42.3 223.1 42.7"/><path clip-path="url(#SVGID_4_)" fill="#FFFFFF" d="M188.5 86.3c0 0.4 0.3 0.7 0.7 0.7s0.7-0.3 0.7-0.7 -0.3-0.7-0.7-0.7S188.5 86 188.5 86.3"/><path clip-path="url(#SVGID_4_)" fill="#FFFFFF" d="M195 84c0 0.4 0.3 0.7 0.7 0.7s0.7-0.3 0.7-0.7 -0.3-0.7-0.7-0.7S195 83.6 195 84"/><path clip-path="url(#SVGID_4_)" fill="#FFFFFF" d="M183.4 79.6c0 0.4 0.3 0.7 0.7 0.7s0.7-0.3 0.7-0.7 -0.3-0.7-0.7-0.7S183.4 79.2 183.4 79.6"/><path clip-path="url(#SVGID_4_)" fill="#FFFFFF" d="M137.3 73.8c0 0.4 0.3 0.7 0.7 0.7s0.7-0.3 0.7-0.7 -0.3-0.7-0.7-0.7S137.3 73.4 137.3 73.8"/><path clip-path="url(#SVGID_4_)" fill="#FFFFFF" d="M55.7 119.4c0 0.4 0.3 0.7 0.7 0.7s0.7-0.3 0.7-0.7 -0.3-0.7-0.7-0.7S55.7 119.1 55.7 119.4"/><path clip-path="url(#SVGID_4_)" fill="#FFFFFF" d="M345.2 197.5c0 0.4 0.3 0.7 0.7 0.7s0.7-0.3 0.7-0.7 -0.3-0.7-0.7-0.7S345.2 197.1 345.2 197.5"/><path clip-path="url(#SVGID_4_)" fill="#FFFFFF" d="M422.5 59.5c0 0.4 0.3 0.7 0.7 0.7s0.7-0.3 0.7-0.7 -0.3-0.7-0.7-0.7S422.5 59.1 422.5 59.5"/><path clip-path="url(#SVGID_4_)" fill="#FFFFFF" d="M402.5 222.7c0 0.4 0.3 0.7 0.7 0.7s0.7-0.3 0.7-0.7 -0.3-0.7-0.7-0.7S402.5 222.3 402.5 222.7"/><path clip-path="url(#SVGID_4_)" fill="#FFFFFF" d="M33.3 222c0 0.4 0.3 0.7 0.7 0.7 0.4 0 0.7-0.3 0.7-0.7s-0.3-0.7-0.7-0.7C33.6 221.3 33.3 221.6 33.3 222"/><path clip-path="url(#SVGID_4_)" fill="#FFFFFF" d="M253 230.7c0 0.4 0.3 0.7 0.7 0.7s0.7-0.3 0.7-0.7 -0.3-0.7-0.7-0.7S253 230.3 253 230.7"/><path clip-path="url(#SVGID_4_)" fill="#FFFFFF" d="M260 237.7c0 0.4 0.3 0.7 0.7 0.7s0.7-0.3 0.7-0.7 -0.3-0.7-0.7-0.7S260 237.3 260 237.7"/><path clip-path="url(#SVGID_4_)" fill="#FFFFFF" d="M263 233.7c0 0.4 0.3 0.7 0.7 0.7s0.7-0.3 0.7-0.7 -0.3-0.7-0.7-0.7S263 233.3 263 233.7"/><polygon clip-path="url(#SVGID_4_)" fill="#FBC242" points="131.9 19.2 132.5 20.9 134.3 20.9 132.8 21.9 133.4 23.6 131.9 22.6 130.5 23.6 131 21.9 129.6 20.9 131.4 20.9 "/><polygon clip-path="url(#SVGID_4_)" fill="#FBC242" points="219.2 106.5 219.8 108.2 221.5 108.2 220.1 109.2 220.7 110.9 219.2 109.9 217.8 110.9 218.3 109.2 216.9 108.2 218.7 108.2 "/><path clip-path="url(#SVGID_4_)" fill="#FFFFFF" d="M123 25.2c0 0.4 0.3 0.7 0.7 0.7s0.7-0.3 0.7-0.7 -0.3-0.7-0.7-0.7S123 24.8 123 25.2"/><path clip-path="url(#SVGID_4_)" fill="#FFFFFF" d="M130 32.2c0 0.4 0.3 0.7 0.7 0.7 0.4 0 0.7-0.3 0.7-0.7s-0.3-0.7-0.7-0.7C130.3 31.5 130 31.8 130 32.2"/><path clip-path="url(#SVGID_4_)" fill="#FFFFFF" d="M133 28.2c0 0.4 0.3 0.7 0.7 0.7s0.7-0.3 0.7-0.7 -0.3-0.7-0.7-0.7S133 27.8 133 28.2"/><path clip-path="url(#SVGID_4_)" fill="#FFFFFF" d="M392.6 64c0 0.6 0.5 1.1 1.1 1.1 0.6 0 1.1-0.5 1.1-1.1s-0.5-1.1-1.1-1.1C393.1 63 392.6 63.4 392.6 64"/><path clip-path="url(#SVGID_4_)" fill="#FFFFFF" d="M374 72.7c0 0.6 0.5 1.1 1.1 1.1 0.6 0 1.1-0.5 1.1-1.1 0-0.6-0.5-1.1-1.1-1.1C374.5 71.6 374 72.1 374 72.7"/><path clip-path="url(#SVGID_4_)" fill="#FFFFFF" d="M248.9 15.3c0 0.6 0.5 1.1 1.1 1.1 0.6 0 1.1-0.5 1.1-1.1 0-0.6-0.5-1.1-1.1-1.1C249.4 14.2 248.9 14.7 248.9 15.3"/><path clip-path="url(#SVGID_4_)" fill="#FFFFFF" d="M281.8 83.3c0 0.6 0.5 1.1 1.1 1.1 0.6 0 1.1-0.5 1.1-1.1 0-0.6-0.5-1.1-1.1-1.1C282.3 82.2 281.8 82.7 281.8 83.3"/><path clip-path="url(#SVGID_4_)" fill="#FFFFFF" d="M180.8 17.2c0 0.6 0.5 1.1 1.1 1.1 0.6 0 1.1-0.5 1.1-1.1 0-0.6-0.5-1.1-1.1-1.1C181.3 16.1 180.8 16.6 180.8 17.2"/><path clip-path="url(#SVGID_4_)" fill="#FFFFFF" d="M364.8 40.6c0 0.6 0.5 1.1 1.1 1.1s1.1-0.5 1.1-1.1 -0.5-1.1-1.1-1.1S364.8 40 364.8 40.6"/><polygon clip-path="url(#SVGID_4_)" fill="#FBC242" points="348.5 234.5 349.3 236.1 351.1 236.4 349.8 237.7 350.1 239.5 348.5 238.6 346.8 239.5 347.1 237.7 345.8 236.4 347.7 236.1 "/><path clip-path="url(#SVGID_4_)" fill="#FFFFFF" d="M365.9 54.4c0 7.3 5.9 13.3 13.3 13.3 7.3 0 13.3-5.9 13.3-13.3 0-7.3-5.9-13.3-13.3-13.3C371.8 41.1 365.9 47.1 365.9 54.4"/><path clip-path="url(#SVGID_4_)" fill="#EDEDED" d="M373.2 46c0 1.1 0.9 1.9 1.9 1.9 1.1 0 1.9-0.9 1.9-1.9 0-1-0.8-1.9-1.9-1.9C374 44.1 373.2 45 373.2 46"/><path clip-path="url(#SVGID_4_)" fill="#EDEDED" d="M373.2 54.4c0 1 0.9 1.9 1.9 1.9 1.1 0 1.9-0.9 1.9-1.9 0-1-0.8-1.9-1.9-1.9C374 52.5 373.2 53.4 373.2 54.4"/><path clip-path="url(#SVGID_4_)" fill="#EDEDED" d="M368.5 51.9c0 0.6 0.5 1.1 1.1 1.1 0.6 0 1.1-0.5 1.1-1.1 0-0.6-0.5-1.1-1.1-1.1C369 50.8 368.5 51.3 368.5 51.9"/><path clip-path="url(#SVGID_4_)" fill="#EDEDED" d="M368.3 58.7c0 0.7 0.6 1.3 1.3 1.3 0.7 0 1.3-0.6 1.3-1.3s-0.6-1.3-1.3-1.3C368.9 57.4 368.3 58 368.3 58.7"/><path clip-path="url(#SVGID_4_)" fill="#EDEDED" d="M373.2 61.8c0 1.7 1.3 3 3 3 1.7 0 3-1.3 3-3 0-1.7-1.3-3-3-3C374.5 58.8 373.2 60.2 373.2 61.8"/><path clip-path="url(#SVGID_4_)" fill="#EDEDED" d="M382.5 61.2c0 1 0.8 1.7 1.7 1.7 1 0 1.7-0.8 1.7-1.7s-0.8-1.7-1.7-1.7C383.3 59.5 382.5 60.3 382.5 61.2"/><path clip-path="url(#SVGID_4_)" fill="#EDEDED" d="M383.1 54.4c0 1 0.9 1.9 1.9 1.9 1 0 1.9-0.9 1.9-1.9 0-1-0.9-1.9-1.9-1.9C383.9 52.5 383.1 53.4 383.1 54.4"/><path clip-path="url(#SVGID_4_)" fill="#EDEDED" d="M382.1 46c0 0.6 0.5 1.1 1.1 1.1 0.6 0 1.1-0.5 1.1-1.1 0-0.6-0.5-1.1-1.1-1.1C382.6 44.9 382.1 45.4 382.1 46"/><path clip-path="url(#SVGID_4_)" fill="#EDEDED" d="M386.3 48.4c0 1 0.8 1.8 1.8 1.8 1 0 1.8-0.8 1.8-1.8 0-1-0.8-1.8-1.8-1.8C387 46.6 386.3 47.4 386.3 48.4"/><path clip-path="url(#SVGID_4_)" fill="#FFFFFF" d="M280.5 126c3.2-3.2 3.2-8.5 0-11.7 -3.2-3.2-8.5-3.2-11.7 0 -3.2 3.2-3.2 8.5 0 11.7C272 129.2 277.3 129.2 280.5 126"/><path clip-path="url(#SVGID_4_)" fill="#B2B2B2" d="M273.6 126.5c0.5-0.5 0.5-1.2 0-1.7s-1.2-0.5-1.7 0c-0.5 0.5-0.5 1.2 0 1.7C272.4 126.9 273.1 126.9 273.6 126.5"/><path clip-path="url(#SVGID_4_)" fill="#B2B2B2" d="M277.3 122.7c0.5-0.5 0.5-1.2 0-1.7 -0.5-0.5-1.2-0.5-1.7 0 -0.5 0.5-0.5 1.2 0 1.7C276.1 123.2 276.8 123.2 277.3 122.7"/><path clip-path="url(#SVGID_4_)" fill="#B2B2B2" d="M278.2 125.9c0.3-0.3 0.3-0.7 0-1s-0.7-0.3-1 0c-0.3 0.3-0.3 0.7 0 1S278 126.2 278.2 125.9"/><path clip-path="url(#SVGID_4_)" fill="#B2B2B2" d="M281.3 123c0.3-0.3 0.3-0.8 0-1.2 -0.3-0.3-0.8-0.3-1.2 0 -0.3 0.3-0.3 0.8 0 1.2C280.5 123.3 281 123.3 281.3 123"/><path clip-path="url(#SVGID_4_)" fill="#B2B2B2" d="M280.5 119.5c0.7-0.7 0.7-1.9 0-2.6 -0.7-0.7-1.9-0.7-2.6 0 -0.7 0.7-0.7 1.9 0 2.6S279.8 120.2 280.5 119.5"/><path clip-path="url(#SVGID_4_)" fill="#B2B2B2" d="M276.2 115.7c0.4-0.4 0.4-1.1 0-1.5 -0.4-0.4-1.1-0.4-1.5 0 -0.4 0.4-0.4 1.1 0 1.5C275.1 116.1 275.8 116.1 276.2 115.7"/><path clip-path="url(#SVGID_4_)" fill="#B2B2B2" d="M272.9 118.4c0.5-0.5 0.5-1.2 0-1.7 -0.5-0.5-1.2-0.5-1.7 0s-0.5 1.2 0 1.7C271.7 118.9 272.5 118.9 272.9 118.4"/><path clip-path="url(#SVGID_4_)" fill="#B2B2B2" d="M269.6 122.5c0.3-0.3 0.3-0.7 0-1 -0.3-0.3-0.7-0.3-1 0s-0.3 0.7 0 1S269.4 122.8 269.6 122.5"/><path clip-path="url(#SVGID_4_)" fill="#B2B2B2" d="M268.9 119.7c0.4-0.4 0.4-1.1 0-1.6 -0.4-0.4-1.1-0.4-1.6 0 -0.4 0.4-0.4 1.1 0 1.6C267.8 120.1 268.4 120.1 268.9 119.7"/><path clip-path="url(#SVGID_4_)" fill="#FFFFFF" d="M389.9 37.3c0.6 0.2 1.2 0 1.4-0.6 0.2-0.6 0-1.2-0.6-1.4 -0.6-0.2-1.2 0-1.4 0.6C389.1 36.5 389.3 37.1 389.9 37.3"/><path clip-path="url(#SVGID_4_)" fill="#E94754" d="M25.9 59.8c0 0-4.2-2.6-8.6 4.5l0.8 0.5c0 0-2.3 2.4-2.7 5.5 3.1-0.4 5.5-2.7 5.5-2.7l0.5 0.8C28.5 64 25.9 59.8 25.9 59.8"/><path clip-path="url(#SVGID_4_)" fill="#FFD024" d="M25.9 59.8c0 0-3.3-2-6.6 3.5l0.6 0.4c0 0-1.8 1.9-2.1 4.3 2.4-0.3 4.3-2.1 4.3-2.1l0.4 0.6C27.9 63 25.9 59.8 25.9 59.8"/><path clip-path="url(#SVGID_4_)" fill="#FFFFFF" d="M25.9 59.8c0 0-2.2-1.4-4.6 2.4l0.4 0.3c0 0-1.2 1.3-1.4 2.9 1.6-0.2 2.9-1.4 2.9-1.4l0.3 0.4C27.3 62 25.9 59.8 25.9 59.8"/><path clip-path="url(#SVGID_4_)" fill="#FFFFFF" d="M45.7 40.1c0 0-14.9-1-22.1 14.4l2.7 2.8 0.6 0.6 4 4.1C46.2 54.4 45.7 40.1 45.7 40.1"/><path clip-path="url(#SVGID_4_)" fill="#B3CAEA" d="M36.3 45.7c-1 1-1 2.6 0 3.6 1 1 2.6 1 3.6 0 1-1 1-2.6 0-3.6C39 44.7 37.3 44.7 36.3 45.7"/><circle clip-path="url(#SVGID_4_)" fill="none" stroke="#575756" stroke-width="0.4" stroke-miterlimit="10" cx="38.1" cy="47.6" r="2.6"/></g><g clip-path="url(#SVGID_2_)"><defs><path id="SVGID_21_" d="M23.5 54.6l7.4 7.4c15.3-7.6 14.8-21.9 14.8-21.9s-0.2 0-0.5 0C42.5 40.1 29.9 40.8 23.5 54.6"/></defs><clipPath id="SVGID_22_"><use xlink:href="#SVGID_21_" overflow="visible"/></clipPath><rect x="23.2" y="48.5" transform="matrix(0.7071 0.7071 -0.7071 0.7071 47.762 -5.7422)" clip-path="url(#SVGID_22_)" fill="#EDEDED" width="15.3" height="12.5"/></g><g clip-path="url(#SVGID_2_)"><defs><path id="SVGID_23_" d="M23.5 54.5l2.7 2.8 0.6 0.6 4 4.1c15.3-7.6 14.8-21.9 14.8-21.9s-0.2 0-0.6 0C42.3 40.1 29.9 40.9 23.5 54.5"/></defs><clipPath id="SVGID_24_"><use xlink:href="#SVGID_23_" overflow="visible"/></clipPath><rect x="35.4" y="42.5" transform="matrix(0.7071 0.7071 -0.7071 0.7071 43.4002 -16.8979)" clip-path="url(#SVGID_24_)" fill="#EDEDED" width="13.4" height="2.9"/></g><g clip-path="url(#SVGID_2_)"><defs><rect id="SVGID_25_" width="453.5" height="255.1"/></defs><clipPath id="SVGID_26_"><use xlink:href="#SVGID_25_" overflow="visible"/></clipPath><path clip-path="url(#SVGID_26_)" fill="#706F6F" d="M38.8 41.8c-0.1 0.1-0.1 0.3 0 0.4s0.3 0.1 0.4 0c0.1-0.1 0.1-0.3 0-0.4S38.9 41.7 38.8 41.8"/><path clip-path="url(#SVGID_26_)" fill="#706F6F" d="M39.7 42.8c-0.1 0.1-0.1 0.3 0 0.4s0.3 0.1 0.4 0 0.1-0.3 0-0.4S39.8 42.7 39.7 42.8"/><path clip-path="url(#SVGID_26_)" fill="#706F6F" d="M40.7 43.7c-0.1 0.1-0.1 0.3 0 0.4s0.3 0.1 0.4 0 0.1-0.3 0-0.4S40.8 43.6 40.7 43.7"/><path clip-path="url(#SVGID_26_)" fill="#706F6F" d="M41.6 44.6c-0.1 0.1-0.1 0.3 0 0.4 0.1 0.1 0.3 0.1 0.4 0 0.1-0.1 0.1-0.3 0-0.4S41.7 44.5 41.6 44.6"/><path clip-path="url(#SVGID_26_)" fill="#706F6F" d="M42.5 45.6c-0.1 0.1-0.1 0.3 0 0.4s0.3 0.1 0.4 0 0.1-0.3 0-0.4S42.6 45.5 42.5 45.6"/><path clip-path="url(#SVGID_26_)" fill="#706F6F" d="M43.5 46.5c-0.1 0.1-0.1 0.3 0 0.4s0.3 0.1 0.4 0 0.1-0.3 0-0.4S43.6 46.4 43.5 46.5"/><path clip-path="url(#SVGID_26_)" fill="#706F6F" d="M31.8 48.9c-0.1 0.1-0.1 0.3 0 0.4s0.3 0.1 0.4 0c0.1-0.1 0.1-0.3 0-0.4S31.9 48.8 31.8 48.9"/><path clip-path="url(#SVGID_26_)" fill="#706F6F" d="M32.7 49.8c-0.1 0.1-0.1 0.3 0 0.4s0.3 0.1 0.4 0 0.1-0.3 0-0.4S32.8 49.7 32.7 49.8"/><path clip-path="url(#SVGID_26_)" fill="#706F6F" d="M33.6 50.7c-0.1 0.1-0.1 0.3 0 0.4s0.3 0.1 0.4 0 0.1-0.3 0-0.4S33.7 50.6 33.6 50.7"/><path clip-path="url(#SVGID_26_)" fill="#706F6F" d="M34.5 51.7c-0.1 0.1-0.1 0.3 0 0.4 0.1 0.1 0.3 0.1 0.4 0s0.1-0.3 0-0.4C34.8 51.6 34.7 51.6 34.5 51.7"/><path clip-path="url(#SVGID_26_)" fill="#706F6F" d="M35.5 52.6c-0.1 0.1-0.1 0.3 0 0.4s0.3 0.1 0.4 0 0.1-0.3 0-0.4S35.6 52.5 35.5 52.6"/><path clip-path="url(#SVGID_26_)" fill="#706F6F" d="M36.4 53.5c-0.1 0.1-0.1 0.3 0 0.4s0.3 0.1 0.4 0 0.1-0.3 0-0.4S36.5 53.4 36.4 53.5"/><path clip-path="url(#SVGID_26_)" fill="#706F6F" d="M37.3 54.5c-0.1 0.1-0.1 0.3 0 0.4s0.3 0.1 0.4 0 0.1-0.3 0-0.4S37.4 54.4 37.3 54.5"/><path clip-path="url(#SVGID_26_)" fill="#706F6F" d="M38.3 55.4c-0.1 0.1-0.1 0.3 0 0.4s0.3 0.1 0.4 0 0.1-0.3 0-0.4S38.4 55.3 38.3 55.4"/><path clip-path="url(#SVGID_26_)" fill="#706F6F" d="M29.9 47c-0.1 0.1-0.1 0.3 0 0.4s0.3 0.1 0.4 0 0.1-0.3 0-0.4S30 46.9 29.9 47"/><path clip-path="url(#SVGID_26_)" fill="#706F6F" d="M30.8 47.9c-0.1 0.1-0.1 0.3 0 0.4 0.1 0.1 0.3 0.1 0.4 0 0.1-0.1 0.1-0.3 0-0.4C31.1 47.8 30.9 47.8 30.8 47.9"/><polygon clip-path="url(#SVGID_26_)" fill="#DADADA" points="28.5 49.1 21.2 50 19.7 51.5 24.6 54 "/><polygon clip-path="url(#SVGID_26_)" fill="#DADADA" points="36.3 56.8 35.3 64.2 33.8 65.7 31.3 60.7 "/><rect x="21.5" y="57.9" transform="matrix(0.7071 0.7071 -0.7071 0.7071 49.5264 -1.2319)" clip-path="url(#SVGID_26_)" fill="#DADADA" width="9.6" height="2.5"/><path clip-path="url(#SVGID_26_)" fill="#FFFFFF" d="M85.9 200.6c0 2.6 2.1 4.7 4.7 4.7s4.7-2.1 4.7-4.7 -2.1-4.7-4.7-4.7S85.9 198 85.9 200.6"/><path clip-path="url(#SVGID_26_)" fill="#B2B2B2" d="M87.8 200.4c0 0.5 0.4 0.9 0.9 0.9 0.5 0 0.9-0.4 0.9-0.9s-0.4-0.9-0.9-0.9C88.2 199.5 87.8 199.9 87.8 200.4"/><path clip-path="url(#SVGID_26_)" fill="#B2B2B2" d="M92.1 200.4c0 0.4 0.3 0.7 0.7 0.7 0.4 0 0.7-0.3 0.7-0.7s-0.3-0.7-0.7-0.7C92.4 199.7 92.1 200 92.1 200.4"/><path clip-path="url(#SVGID_26_)" fill="#B2B2B2" d="M90 202.1c0-0.6 0.5-1 1.1-1 0.6 0 1 0.5 1 1 0 0.6-0.5 1-1 1C90.4 203.2 90 202.7 90 202.1"/><line clip-path="url(#SVGID_26_)" fill="#6D503E" x1="338.1" y1="119.4" x2="341.3" y2="122.6"/><line clip-path="url(#SVGID_26_)" fill="none" stroke="#535255" stroke-width="0.8" stroke-miterlimit="10" x1="338.1" y1="119.4" x2="341.3" y2="122.6"/><rect x="339.9" y="107.4" transform="matrix(0.7071 -0.7071 0.7071 0.7071 22.354 276.1548)" clip-path="url(#SVGID_26_)" fill="#535255" width="9.3" height="7.3"/><rect x="340.8" y="108.2" transform="matrix(0.7071 -0.7071 0.7071 0.7071 22.354 276.1548)" clip-path="url(#SVGID_26_)" fill="#F8AC3B" width="7.4" height="5.8"/><line clip-path="url(#SVGID_26_)" fill="#6D503E" x1="341.9" y1="108.5" x2="347.1" y2="113.7"/><line clip-path="url(#SVGID_26_)" fill="none" stroke="#535255" stroke-width="0.8" stroke-miterlimit="10" x1="341.9" y1="108.5" x2="347.1" y2="113.7"/><line clip-path="url(#SVGID_26_)" fill="#6D503E" x1="339.6" y1="111.7" x2="346.6" y2="113.5"/><line clip-path="url(#SVGID_26_)" fill="none" stroke="#535255" stroke-width="0.8" stroke-miterlimit="10" x1="339.6" y1="111.7" x2="346.6" y2="113.5"/><line clip-path="url(#SVGID_26_)" fill="#6D503E" x1="342.1" y1="109.1" x2="344.1" y2="116"/><line clip-path="url(#SVGID_26_)" fill="none" stroke="#535255" stroke-width="0.8" stroke-miterlimit="10" x1="342.1" y1="109.1" x2="344.1" y2="116"/><line clip-path="url(#SVGID_26_)" fill="#6D503E" x1="342.6" y1="108.7" x2="349.5" y2="110.5"/><line clip-path="url(#SVGID_26_)" fill="none" stroke="#535255" stroke-width="0.8" stroke-miterlimit="10" x1="342.6" y1="108.7" x2="349.5" y2="110.5"/><line clip-path="url(#SVGID_26_)" fill="#6D503E" x1="345" y1="106.2" x2="347.1" y2="113.1"/><line clip-path="url(#SVGID_26_)" fill="none" stroke="#535255" stroke-width="0.8" stroke-miterlimit="10" x1="345" y1="106.2" x2="347.1" y2="113.1"/><rect x="332.5" y="114.8" transform="matrix(0.7071 -0.7071 0.7071 0.7071 14.9659 273.0851)" clip-path="url(#SVGID_26_)" fill="#7E7B71" width="9.3" height="7.3"/><polygon clip-path="url(#SVGID_26_)" fill="#535255" points="337.9 112.6 331.3 119.2 329.6 118.3 337 110.9 "/><rect x="331.3" y="113.8" transform="matrix(0.7071 -0.7071 0.7071 0.7071 16.7165 268.8846)" clip-path="url(#SVGID_26_)" fill="#3F3F3F" width="3.3" height="0.9"/><rect x="331" y="116.6" transform="matrix(0.7071 -0.7071 0.7071 0.7071 15.6076 271.5869)" clip-path="url(#SVGID_26_)" fill="#3F3F3F" width="9.3" height="0.8"/><rect x="331.9" y="117.5" transform="matrix(0.7071 -0.7071 0.7071 0.7071 15.2219 272.493)" clip-path="url(#SVGID_26_)" fill="#3F3F3F" width="9.3" height="0.8"/><path clip-path="url(#SVGID_26_)" fill="#535255" d="M337.4 120.5c0.5 0.5 1.3 0.5 1.8 0 0.5-0.5 0.5-1.3 0-1.8 -0.5-0.5-1.3-0.5-1.8 0C336.9 119.2 336.9 120 337.4 120.5"/><path clip-path="url(#SVGID_26_)" fill="#535255" d="M335.7 122.2c0.3 0.3 0.8 0.3 1.1 0 0.3-0.3 0.3-0.8 0-1.1 -0.3-0.3-0.8-0.3-1.1 0C335.4 121.4 335.4 121.9 335.7 122.2"/><path clip-path="url(#SVGID_26_)" fill="#535255" d="M339.8 118.1c0.3 0.3 0.8 0.3 1.1 0 0.3-0.3 0.3-0.8 0-1.1 -0.3-0.3-0.8-0.3-1.1 0C339.5 117.3 339.5 117.8 339.8 118.1"/><rect x="325.2" y="122.1" transform="matrix(0.7071 -0.7071 0.7071 0.7071 7.6724 270.0735)" clip-path="url(#SVGID_26_)" fill="#535255" width="9.3" height="7.3"/><rect x="326.2" y="122.9" transform="matrix(0.7071 -0.7071 0.7071 0.7071 7.6724 270.0735)" clip-path="url(#SVGID_26_)" fill="#F8AC3B" width="7.4" height="5.8"/><line clip-path="url(#SVGID_26_)" fill="#6D503E" x1="327.3" y1="123.2" x2="332.4" y2="128.4"/><line clip-path="url(#SVGID_26_)" fill="none" stroke="#535255" stroke-width="0.8" stroke-miterlimit="10" x1="327.3" y1="123.2" x2="332.4" y2="128.4"/><line clip-path="url(#SVGID_26_)" fill="#6D503E" x1="324.9" y1="126.3" x2="331.9" y2="128.2"/><line clip-path="url(#SVGID_26_)" fill="none" stroke="#535255" stroke-width="0.8" stroke-miterlimit="10" x1="324.9" y1="126.3" x2="331.9" y2="128.2"/><line clip-path="url(#SVGID_26_)" fill="#6D503E" x1="327.4" y1="123.8" x2="329.5" y2="130.7"/><line clip-path="url(#SVGID_26_)" fill="none" stroke="#535255" stroke-width="0.8" stroke-miterlimit="10" x1="327.4" y1="123.8" x2="329.5" y2="130.7"/><line clip-path="url(#SVGID_26_)" fill="#6D503E" x1="327.9" y1="123.4" x2="334.8" y2="125.2"/><line clip-path="url(#SVGID_26_)" fill="none" stroke="#535255" stroke-width="0.8" stroke-miterlimit="10" x1="327.9" y1="123.4" x2="334.8" y2="125.2"/><line clip-path="url(#SVGID_26_)" fill="#6D503E" x1="330.3" y1="120.9" x2="332.4" y2="127.7"/><line clip-path="url(#SVGID_26_)" fill="none" stroke="#535255" stroke-width="0.8" stroke-miterlimit="10" x1="330.3" y1="120.9" x2="332.4" y2="127.7"/><path clip-path="url(#SVGID_26_)" fill="#FFFFFF" d="M340.6 123.2c0.3 0.3 0.9 0.3 1.3 0 0.3-0.3 0.3-0.9 0-1.3 -0.3-0.3-0.9-0.3-1.3 0C340.3 122.3 340.3 122.9 340.6 123.2"/><circle clip-path="url(#SVGID_26_)" fill="none" stroke="#535255" stroke-width="0.8" stroke-miterlimit="10" cx="341.3" cy="122.6" r="0.9"/><path clip-path="url(#SVGID_26_)" fill="#E3263D" d="M429.1 108.9c-3.1-3.1-8.2-3.1-11.3 0s-3.1 8.2 0 11.3 8.2 3.1 11.3 0S432.3 112.1 429.1 108.9"/><path clip-path="url(#SVGID_26_)" fill="#EB5F50" d="M430.1 119.2c-0.6-0.6-1.5-0.6-2 0 -0.6 0.6-0.6 1.5 0 2 0.6 0.6 1.5 0.6 2 0C430.7 120.7 430.7 119.8 430.1 119.2"/><path clip-path="url(#SVGID_26_)" fill="#EB5F50" d="M416.9 104.2c-0.6-0.6-1.5-0.6-2 0s-0.6 1.5 0 2c0.6 0.6 1.5 0.6 2 0C417.5 105.7 417.5 104.8 416.9 104.2"/><path clip-path="url(#SVGID_26_)" fill="#EB5F50" d="M433.8 107.3c-0.5-0.5-1.4-0.5-1.9 0 -0.5 0.5-0.5 1.4 0 1.9 0.5 0.5 1.4 0.5 1.9 0C434.3 108.7 434.3 107.9 433.8 107.3"/><g opacity="0.2" clip-path="url(#SVGID_26_)"><defs><rect id="SVGID_27_" x="418.8" y="109.8" width="4.3" height="4.3"/></defs><clipPath id="SVGID_28_"><use xlink:href="#SVGID_27_" overflow="visible"/></clipPath><path clip-path="url(#SVGID_28_)" fill="#FFFFFF" d="M422.5 110.5c-0.8-0.8-2.2-0.8-3.1 0 -0.8 0.8-0.8 2.2 0 3.1 0.8 0.8 2.2 0.8 3.1 0C423.4 112.7 423.4 111.3 422.5 110.5"/></g><path clip-path="url(#SVGID_26_)" fill="#E94754" d="M310.2 220.2c0 0-1.4 2.3 2.4 4.6l0.3-0.4c0 0 1.3 1.2 3 1.5 -0.2-1.7-1.5-3-1.5-3l0.4-0.3C312.4 218.8 310.2 220.2 310.2 220.2"/><path clip-path="url(#SVGID_26_)" fill="#FFD024" d="M310.2 220.2c0 0-1.1 1.8 1.9 3.6l0.2-0.3c0 0 1 0.9 2.3 1.1 -0.2-1.3-1.1-2.3-1.1-2.3l0.3-0.2C311.9 219.1 310.2 220.2 310.2 220.2"/><path clip-path="url(#SVGID_26_)" fill="#FFFFFF" d="M310.2 220.2c0 0-0.7 1.2 1.3 2.5l0.1-0.2c0 0 0.7 0.7 1.6 0.8 -0.1-0.9-0.8-1.6-0.8-1.6l0.2-0.1C311.4 219.4 310.2 220.2 310.2 220.2"/><path clip-path="url(#SVGID_26_)" fill="#FFFFFF" d="M299.6 209.5c0 0-0.6 8 7.8 11.9l1.5-1.5 0.3-0.3 2.2-2.2C307.3 209.2 299.6 209.5 299.6 209.5"/><path clip-path="url(#SVGID_26_)" fill="#B3CAEA" d="M302.6 214.5c0.5 0.5 1.4 0.6 2 0 0.5-0.5 0.6-1.4 0-2 -0.5-0.5-1.4-0.6-2 0C302.1 213.1 302.1 214 302.6 214.5"/><circle clip-path="url(#SVGID_26_)" fill="none" stroke="#575756" stroke-width="0.2" stroke-miterlimit="10" cx="303.6" cy="213.6" r="1.4"/></g><g clip-path="url(#SVGID_2_)"><defs><path id="SVGID_29_" d="M299.6 209.5c0 0-0.5 8.1 7.8 12l4-4c-3.8-7.8-10.9-8-11.7-8C299.6 209.5 299.6 209.5 299.6 209.5"/></defs><clipPath id="SVGID_30_"><use xlink:href="#SVGID_29_" overflow="visible"/></clipPath><rect x="303.3" y="214.1" transform="matrix(0.7071 -0.7071 0.7071 0.7071 -63.7505 281.1258)" clip-path="url(#SVGID_30_)" fill="#EDEDED" width="8.3" height="6.7"/></g><g clip-path="url(#SVGID_2_)"><defs><path id="SVGID_31_" d="M299.6 209.5c0 0-0.6 8 7.8 11.9l1.5-1.5 0.3-0.3 2.2-2.2c-3.8-7.8-10.9-8-11.7-8C299.6 209.5 299.6 209.5 299.6 209.5"/></defs><clipPath id="SVGID_32_"><use xlink:href="#SVGID_31_" overflow="visible"/></clipPath><rect x="298" y="210.7" transform="matrix(0.7071 -0.7071 0.7071 0.7071 -61.1591 275.2073)" clip-path="url(#SVGID_32_)" fill="#EDEDED" width="7.3" height="1.6"/></g><g clip-path="url(#SVGID_2_)"><defs><rect id="SVGID_33_" width="453.5" height="255.1"/></defs><clipPath id="SVGID_34_"><use xlink:href="#SVGID_33_" overflow="visible"/></clipPath><path clip-path="url(#SVGID_34_)" fill="#706F6F" d="M300.5 213.2c0.1 0.1 0.1 0.1 0.2 0 0.1-0.1 0.1-0.1 0-0.2 -0.1-0.1-0.1-0.1-0.2 0C300.4 213.1 300.4 213.2 300.5 213.2"/><path clip-path="url(#SVGID_34_)" fill="#706F6F" d="M301 212.7c0.1 0.1 0.1 0.1 0.2 0 0.1-0.1 0.1-0.1 0-0.2 -0.1-0.1-0.1-0.1-0.2 0C300.9 212.6 300.9 212.7 301 212.7"/><path clip-path="url(#SVGID_34_)" fill="#706F6F" d="M301.5 212.2c0.1 0.1 0.1 0.1 0.2 0s0.1-0.1 0-0.2c-0.1-0.1-0.1-0.1-0.2 0C301.4 212.1 301.4 212.1 301.5 212.2"/><path clip-path="url(#SVGID_34_)" fill="#706F6F" d="M302 211.7c0.1 0.1 0.1 0.1 0.2 0 0.1-0.1 0.1-0.1 0-0.2 -0.1-0.1-0.1-0.1-0.2 0C301.9 211.6 301.9 211.6 302 211.7"/><path clip-path="url(#SVGID_34_)" fill="#706F6F" d="M302.5 211.2c0.1 0.1 0.1 0.1 0.2 0 0.1-0.1 0.1-0.1 0-0.2 -0.1-0.1-0.1-0.1-0.2 0C302.4 211.1 302.4 211.1 302.5 211.2"/><path clip-path="url(#SVGID_34_)" fill="#706F6F" d="M303 210.7c0.1 0.1 0.1 0.1 0.2 0 0.1-0.1 0.1-0.1 0-0.2 -0.1-0.1-0.1-0.1-0.2 0C302.9 210.6 302.9 210.6 303 210.7"/><path clip-path="url(#SVGID_34_)" fill="#706F6F" d="M304.3 217c0.1 0.1 0.1 0.1 0.2 0 0.1-0.1 0.1-0.1 0-0.2s-0.1-0.1-0.2 0C304.2 216.9 304.2 217 304.3 217"/><path clip-path="url(#SVGID_34_)" fill="#706F6F" d="M304.8 216.5c0.1 0.1 0.1 0.1 0.2 0 0.1-0.1 0.1-0.1 0-0.2 -0.1-0.1-0.1-0.1-0.2 0C304.7 216.4 304.7 216.5 304.8 216.5"/><path clip-path="url(#SVGID_34_)" fill="#706F6F" d="M305.3 216c0.1 0.1 0.1 0.1 0.2 0s0.1-0.1 0-0.2 -0.1-0.1-0.2 0S305.2 215.9 305.3 216"/><path clip-path="url(#SVGID_34_)" fill="#706F6F" d="M305.8 215.5c0.1 0.1 0.1 0.1 0.2 0 0.1-0.1 0.1-0.1 0-0.2 -0.1-0.1-0.1-0.1-0.2 0C305.7 215.4 305.7 215.4 305.8 215.5"/><path clip-path="url(#SVGID_34_)" fill="#706F6F" d="M306.3 215c0.1 0.1 0.1 0.1 0.2 0 0.1-0.1 0.1-0.1 0-0.2 -0.1-0.1-0.1-0.1-0.2 0C306.2 214.9 306.2 214.9 306.3 215"/><path clip-path="url(#SVGID_34_)" fill="#706F6F" d="M306.8 214.5c0.1 0.1 0.1 0.1 0.2 0 0.1-0.1 0.1-0.1 0-0.2s-0.1-0.1-0.2 0C306.7 214.4 306.7 214.4 306.8 214.5"/><path clip-path="url(#SVGID_34_)" fill="#706F6F" d="M307.3 214c0.1 0.1 0.1 0.1 0.2 0 0.1-0.1 0.1-0.1 0-0.2 -0.1-0.1-0.1-0.1-0.2 0C307.3 213.8 307.2 213.9 307.3 214"/><path clip-path="url(#SVGID_34_)" fill="#706F6F" d="M307.8 213.5c0.1 0.1 0.1 0.1 0.2 0 0.1-0.1 0.1-0.1 0-0.2 -0.1-0.1-0.1-0.1-0.2 0C307.8 213.3 307.8 213.4 307.8 213.5"/><path clip-path="url(#SVGID_34_)" fill="#706F6F" d="M303.3 218c0.1 0.1 0.1 0.1 0.2 0 0.1-0.1 0.1-0.1 0-0.2 -0.1-0.1-0.1-0.1-0.2 0C303.2 217.9 303.2 218 303.3 218"/><path clip-path="url(#SVGID_34_)" fill="#706F6F" d="M303.8 217.5c0.1 0.1 0.1 0.1 0.2 0 0.1-0.1 0.1-0.1 0-0.2 -0.1-0.1-0.1-0.1-0.2 0C303.7 217.4 303.7 217.5 303.8 217.5"/><polygon clip-path="url(#SVGID_34_)" fill="#DADADA" points="304.4 218.8 304.9 222.7 305.7 223.5 307.1 220.9 "/><polygon clip-path="url(#SVGID_34_)" fill="#DADADA" points="308.6 214.6 312.5 215.1 313.4 215.9 310.7 217.2 "/><rect x="307.3" y="219.3" transform="matrix(0.7072 -0.707 0.707 0.7072 -64.8066 283.4695)" clip-path="url(#SVGID_34_)" fill="#DADADA" width="5.2" height="1.3"/><path clip-path="url(#SVGID_34_)" fill="#FFFFFF" d="M146.4 94.3c0 3 2.4 5.4 5.4 5.4 3 0 5.4-2.4 5.4-5.4 0-3-2.4-5.4-5.4-5.4C148.9 88.9 146.4 91.3 146.4 94.3"/><path clip-path="url(#SVGID_34_)" fill="#B2B2B2" d="M148.5 94.1c0 0.6 0.5 1 1 1 0.6 0 1-0.5 1-1 0-0.6-0.5-1-1-1C149 93.1 148.5 93.6 148.5 94.1"/><path clip-path="url(#SVGID_34_)" fill="#B2B2B2" d="M153.5 94.1c0 0.4 0.3 0.8 0.8 0.8 0.4 0 0.8-0.3 0.8-0.8 0-0.4-0.3-0.8-0.8-0.8C153.8 93.3 153.5 93.7 153.5 94.1"/><path clip-path="url(#SVGID_34_)" fill="#B2B2B2" d="M151.1 96.1c0-0.7 0.5-1.2 1.2-1.2s1.2 0.5 1.2 1.2c0 0.7-0.5 1.2-1.2 1.2S151.1 96.8 151.1 96.1"/><line clip-path="url(#SVGID_34_)" fill="#6D503E" x1="58" y1="219.5" x2="53.1" y2="224.4"/><line clip-path="url(#SVGID_34_)" fill="none" stroke="#535255" stroke-width="1.3" stroke-miterlimit="10" x1="58" y1="219.5" x2="53.1" y2="224.4"/><rect x="63.7" y="223.8" transform="matrix(0.7071 0.7071 -0.7071 0.7071 183.0604 17.0088)" clip-path="url(#SVGID_34_)" fill="#535255" width="14.5" height="11.4"/><rect x="65.3" y="225" transform="matrix(0.7071 0.7071 -0.7071 0.7071 183.0655 17.0115)" clip-path="url(#SVGID_34_)" fill="#F8AC3B" width="11.5" height="9"/><line clip-path="url(#SVGID_34_)" fill="#6D503E" x1="75" y1="225.5" x2="67" y2="233.5"/><line clip-path="url(#SVGID_34_)" fill="none" stroke="#535255" stroke-width="1.3" stroke-miterlimit="10" x1="75" y1="225.5" x2="67" y2="233.5"/><line clip-path="url(#SVGID_34_)" fill="#6D503E" x1="70.1" y1="221.9" x2="67.3" y2="232.7"/><line clip-path="url(#SVGID_34_)" fill="none" stroke="#535255" stroke-width="1.3" stroke-miterlimit="10" x1="70.1" y1="221.9" x2="67.3" y2="232.7"/><line clip-path="url(#SVGID_34_)" fill="#6D503E" x1="74.1" y1="225.6" x2="63.4" y2="228.9"/><line clip-path="url(#SVGID_34_)" fill="none" stroke="#535255" stroke-width="1.3" stroke-miterlimit="10" x1="74.1" y1="225.6" x2="63.4" y2="228.9"/><line clip-path="url(#SVGID_34_)" fill="#6D503E" x1="74.7" y1="226.4" x2="71.9" y2="237.2"/><line clip-path="url(#SVGID_34_)" fill="none" stroke="#535255" stroke-width="1.3" stroke-miterlimit="10" x1="74.7" y1="226.4" x2="71.9" y2="237.2"/><line clip-path="url(#SVGID_34_)" fill="#6D503E" x1="78.6" y1="230.2" x2="67.9" y2="233.5"/><line clip-path="url(#SVGID_34_)" fill="none" stroke="#535255" stroke-width="1.3" stroke-miterlimit="10" x1="78.6" y1="230.2" x2="67.9" y2="233.5"/><rect x="52.2" y="212.3" transform="matrix(0.7071 0.7071 -0.7071 0.7071 171.567 21.77)" clip-path="url(#SVGID_34_)" fill="#7E7B71" width="14.5" height="11.4"/><polygon clip-path="url(#SVGID_34_)" fill="#535255" points="68.7 219.1 58.4 208.8 59.8 206.2 71.3 217.7 "/><rect x="63.5" y="210.7" transform="matrix(0.7072 0.7071 -0.7071 0.7072 168.8415 15.207)" clip-path="url(#SVGID_34_)" fill="#3F3F3F" width="5.1" height="1.5"/><rect x="54.6" y="215" transform="matrix(0.7071 0.7071 -0.7071 0.7071 170.5899 19.4037)" clip-path="url(#SVGID_34_)" fill="#3F3F3F" width="14.5" height="1.2"/><rect x="53.2" y="216.5" transform="matrix(0.7071 0.7071 -0.7071 0.7071 171.1817 20.8325)" clip-path="url(#SVGID_34_)" fill="#3F3F3F" width="14.5" height="1.2"/><path clip-path="url(#SVGID_34_)" fill="#535255" d="M56.4 218.4c-0.8 0.8-0.8 2 0 2.7 0.8 0.8 2 0.8 2.7 0 0.8-0.8 0.8-2 0-2.7C58.4 217.6 57.1 217.6 56.4 218.4"/><path clip-path="url(#SVGID_34_)" fill="#535255" d="M53.7 215.7c-0.5 0.5-0.5 1.2 0 1.7 0.5 0.5 1.2 0.5 1.7 0 0.5-0.5 0.5-1.2 0-1.7C54.9 215.3 54.2 215.3 53.7 215.7"/><path clip-path="url(#SVGID_34_)" fill="#535255" d="M60.1 222.1c-0.5 0.5-0.5 1.2 0 1.7 0.5 0.5 1.2 0.5 1.7 0 0.5-0.5 0.5-1.2 0-1.7C61.3 221.6 60.6 221.6 60.1 222.1"/><rect x="40.9" y="200.9" transform="matrix(0.7071 0.7071 -0.7071 0.7071 160.2074 26.4799)" clip-path="url(#SVGID_34_)" fill="#535255" width="14.5" height="11.4"/><rect x="42.4" y="202.1" transform="matrix(0.7071 0.7071 -0.7071 0.7071 160.2017 26.4764)" clip-path="url(#SVGID_34_)" fill="#F8AC3B" width="11.5" height="9"/><line clip-path="url(#SVGID_34_)" fill="#6D503E" x1="52.2" y1="202.6" x2="44.1" y2="210.7"/><line clip-path="url(#SVGID_34_)" fill="none" stroke="#535255" stroke-width="1.3" stroke-miterlimit="10" x1="52.2" y1="202.6" x2="44.1" y2="210.7"/><line clip-path="url(#SVGID_34_)" fill="#6D503E" x1="47.3" y1="199" x2="44.4" y2="209.8"/><line clip-path="url(#SVGID_34_)" fill="none" stroke="#535255" stroke-width="1.3" stroke-miterlimit="10" x1="47.3" y1="199" x2="44.4" y2="209.8"/><line clip-path="url(#SVGID_34_)" fill="#6D503E" x1="51.2" y1="202.8" x2="40.5" y2="206"/><line clip-path="url(#SVGID_34_)" fill="none" stroke="#535255" stroke-width="1.3" stroke-miterlimit="10" x1="51.2" y1="202.8" x2="40.5" y2="206"/><line clip-path="url(#SVGID_34_)" fill="#6D503E" x1="51.8" y1="203.6" x2="49" y2="214.4"/><line clip-path="url(#SVGID_34_)" fill="none" stroke="#535255" stroke-width="1.3" stroke-miterlimit="10" x1="51.8" y1="203.6" x2="49" y2="214.4"/><line clip-path="url(#SVGID_34_)" fill="#6D503E" x1="55.8" y1="207.4" x2="45.1" y2="210.6"/><line clip-path="url(#SVGID_34_)" fill="none" stroke="#535255" stroke-width="1.3" stroke-miterlimit="10" x1="55.8" y1="207.4" x2="45.1" y2="210.6"/><path clip-path="url(#SVGID_34_)" fill="#FFFFFF" d="M52.1 223.4c-0.5 0.5-0.5 1.4 0 1.9 0.5 0.5 1.4 0.5 1.9 0 0.5-0.5 0.5-1.4 0-1.9C53.5 222.9 52.6 222.9 52.1 223.4"/><circle clip-path="url(#SVGID_34_)" fill="none" stroke="#535255" stroke-width="1.3" stroke-miterlimit="10" cx="53.1" cy="224.4" r="1.4"/></g></svg>